<svg xmlns="http://www.w3.org/2000/svg" width="18" height="18" viewBox="0 0 18 18">
  <defs>
    <style>
      .cls-1 {
        fill: #fff;
        fill-rule: evenodd;
      }
    </style>
  </defs>
  <path id="Mobile_EditIcon" class="cls-1" d="M293.638,1162a0.661,0.661,0,0,1-.471-0.16c-0.169-.17-0.361-0.36.3-2.58a10.625,10.625,0,0,1,.895-2.33l12.436-12.44a1.682,1.682,0,0,1,2.373,0l1.336,1.34a1.653,1.653,0,0,1,.491,1.18,1.677,1.677,0,0,1-.491,1.19l-12.436,12.44A15.093,15.093,0,0,1,293.638,1162Zm1.336-4.49a19.188,19.188,0,0,0-1.111,3.63,19.641,19.641,0,0,0,3.633-1.11l12.416-12.42a0.843,0.843,0,0,0,0-1.19l-1.335-1.33a0.854,0.854,0,0,0-1.187,0Zm10.87-2.55a0.42,0.42,0,0,1-.3-0.72l3.682-3.68a0.428,0.428,0,0,1,.594,0,0.415,0.415,0,0,1,0,.59l-3.683,3.69A0.423,0.423,0,0,1,305.844,1154.96Zm-8.981,6.17a0.423,0.423,0,0,1-.3-0.12l-2.547-2.55a0.415,0.415,0,0,1,0-.59,0.409,0.409,0,0,1,.593,0l2.547,2.54A0.42,0.42,0,0,1,296.863,1161.13Zm11.761-11.22a0.423,0.423,0,0,1-.3-0.12l-2.912-2.92a0.415,0.415,0,0,1,0-.59,0.426,0.426,0,0,1,.593,0l2.912,2.91A0.42,0.42,0,0,1,308.624,1149.91Z" transform="translate(-293 -1144)"/>
</svg>
