<svg xmlns="http://www.w3.org/2000/svg" width="19" height="15" viewBox="0 0 19 15">
  <defs>
    <style>
      .cls-1 {
        fill: #ffc80a;
        fill-rule: evenodd;
      }
    </style>
  </defs>
  <path id="Mobile_QuoteIcon" class="cls-1" d="M103.293,1121.03l-0.369-.75a7.348,7.348,0,0,0-3.324,2.85,7.58,7.58,0,0,0-1.128,4.04,8.839,8.839,0,0,0,.287,2.31,4.862,4.862,0,0,0,.759,1.69,3.138,3.138,0,0,0,1.353,1.15,4.58,4.58,0,0,0,1.97.4,4.07,4.07,0,0,0,2.851-.99,3.4,3.4,0,0,0,1.087-2.64,3.471,3.471,0,0,0-1-2.65,3.729,3.729,0,0,0-2.687-.96,3.835,3.835,0,0,0-3.077,1.32,4.337,4.337,0,0,1,.123-2.32,5.291,5.291,0,0,1,1.19-1.99,6.257,6.257,0,0,1,1.969-1.46h0Zm-9.662,0-0.369-.75a7.417,7.417,0,0,0-3.334,2.85,7.53,7.53,0,0,0-1.138,4.04,8.431,8.431,0,0,0,.3,2.3,5.242,5.242,0,0,0,.769,1.7,3.138,3.138,0,0,0,1.354,1.15,4.526,4.526,0,0,0,1.949.4,4.1,4.1,0,0,0,2.872-.99,3.4,3.4,0,0,0,1.087-2.64,3.471,3.471,0,0,0-1.005-2.65,3.729,3.729,0,0,0-2.687-.96,3.835,3.835,0,0,0-3.077,1.32,4.343,4.343,0,0,1,.123-2.32,5.307,5.307,0,0,1,1.19-1.99,6.27,6.27,0,0,1,1.969-1.46h0Z" transform="translate(-88.281 -1119)"/>
</svg>
