<svg xmlns="http://www.w3.org/2000/svg" width="18" height="14" viewBox="0 0 18 14">
  <defs>
    <style>
      .cls-1 {
        fill: #fff;
        fill-rule: evenodd;
      }
    </style>
  </defs>
  <path id="Mobile_BackArrow" class="cls-1" d="M32.766,405.25H49.234a0.766,0.766,0,1,1,0,1.531H32.766A0.766,0.766,0,1,1,32.766,405.25Zm5.707,7.538-6.213-6.176a0.791,0.791,0,0,1,0-1.123,0.8,0.8,0,0,1,1.13,0l6.212,6.176a0.791,0.791,0,0,1,0,1.123A0.8,0.8,0,0,1,38.473,412.788Zm0-13.536-6.213,6.175a0.791,0.791,0,0,0,0,1.123,0.8,0.8,0,0,0,1.13,0l6.212-6.176a0.789,0.789,0,0,0,0-1.122A0.8,0.8,0,0,0,38.473,399.252Z" transform="translate(-32 -399.031)"/>
</svg>
