<svg xmlns="http://www.w3.org/2000/svg" width="113" height="106" viewBox="0 0 113 106">
  <defs>
    <style>
      .cls-1 {
        fill: #b4b4b4;
        fill-rule: evenodd;
      }
    </style>
  </defs>
  <path id="bubbles" class="cls-1" d="M630.417,474.071a1.9,1.9,0,0,1-1.323-3.242c0.079-.079,7.624-7.687,8.764-18.462-11.035-6.9-16.858-16.7-16.858-28.4C621,403.583,641.275,387,666.2,387s45.2,16.584,45.2,36.967c0,20.319-20.271,36.851-45.191,36.854h-8.736c-9.847,11.846-26.21,13.193-26.915,13.245C630.509,474.068,630.463,474.071,630.417,474.071ZM666.2,390.785c-22.845,0-41.431,14.885-41.431,33.181,0,10.643,5.541,19.551,16.023,25.76a1.9,1.9,0,0,1,.923,1.748,35.586,35.586,0,0,1-6.645,17.994c5.435-1.262,14.287-4.359,20.023-11.709a1.884,1.884,0,0,1,1.483-.724H666.2c22.847,0,41.433-14.834,41.433-33.069C707.631,405.67,689.045,390.785,666.2,390.785ZM724.583,493c-0.046,0-.092,0-0.139,0-0.7-.052-17.068-1.4-26.915-13.245h-8.738c-11.243,0-20.491-2.676-27.487-7.951a1.9,1.9,0,0,1-.377-2.649,1.876,1.876,0,0,1,2.636-.378c6.332,4.773,14.823,7.192,25.239,7.192h9.624a1.881,1.881,0,0,1,1.483.725c5.736,7.349,14.588,10.447,20.023,11.709a35.59,35.59,0,0,1-6.645-18,1.894,1.894,0,0,1,.923-1.747c10.482-6.209,16.023-15.117,16.023-25.76,0-5.042-3.3-12.956-10.546-18.417a1.9,1.9,0,0,1-.377-2.651,1.879,1.879,0,0,1,2.636-.378C730.274,427.725,734,436.743,734,442.9c0,11.7-5.823,21.5-16.858,28.4,1.14,10.775,8.685,18.383,8.764,18.462a1.9,1.9,0,0,1,.391,2.13A1.883,1.883,0,0,1,724.583,493Z" transform="translate(-621 -387)"/>
</svg>
