<svg xmlns="http://www.w3.org/2000/svg" width="12" height="14" viewBox="0 0 12 14">
  <defs>
    <style>
      .cls-1 {
        fill: #fff;
        fill-rule: evenodd;
      }
    </style>
  </defs>
  <path id="User_icon" data-name="User icon" class="cls-1" d="M1243,46h-12s-0.03-1.815,0-3a40.746,40.746,0,0,1,3.81-1.525c0.09-.026.11-0.032,0.11-0.411a1.982,1.982,0,0,0-.16-0.908,4.509,4.509,0,0,1-.37-1.216,2.682,2.682,0,0,1-.55-1.266,1.662,1.662,0,0,1,.01-1.063c0.01-.023.02-0.045,0.03-0.069a6.848,6.848,0,0,0-.12-1.492,2.648,2.648,0,0,1,.6-1.976,3.142,3.142,0,0,1,2.34-1.077h0.71a3.161,3.161,0,0,1,2.37,1.077,2.648,2.648,0,0,1,.6,1.976,6.262,6.262,0,0,0-.12,1.495,0.173,0.173,0,0,0,.02.067,1.569,1.569,0,0,1,.02,1.063,2.682,2.682,0,0,1-.55,1.266,4.171,4.171,0,0,1-.38,1.216,2.128,2.128,0,0,0-.26.9c0,0.379.01,0.384,0.11,0.413A40.2,40.2,0,0,1,1243,43v3Z" transform="translate(-1231 -32)"/>
</svg>
